<svg width="160" height="160" viewBox="0 0 160 160" fill="none" xmlns="http://www.w3.org/2000/svg">
<path d="M26.2144 26.3091C15.8906 36.643 11.2362 44.4265 7.0176 58.4113C3.62798 69.6479 70.0198 3.54439 58.3703 7.05852C44.3579 11.2854 36.5585 15.9547 26.2144 26.3091Z" fill="black"/>
<path d="M133.786 133.691C144.109 123.357 148.764 115.574 152.982 101.589C156.372 90.3521 89.9802 156.456 101.63 152.941C115.642 148.715 123.442 144.045 133.786 133.691Z" fill="black"/>
<path fill-rule="evenodd" clip-rule="evenodd" d="M22.9881 136.973C18.8304 132.816 18.8304 126.075 22.9881 121.917L121.822 23.0833C125.98 18.9257 132.72 18.9257 136.878 23.0833C141.036 27.241 141.036 33.9819 136.878 38.1396L38.0444 136.973C33.8867 141.131 27.1458 141.131 22.9881 136.973Z" fill="black"/>
<path fill-rule="evenodd" clip-rule="evenodd" d="M7.72454 98.4794C4.45779 95.2127 4.45779 89.9162 7.72454 86.6495L86.77 7.60394C90.0368 4.33719 95.3332 4.33719 98.6 7.60394C101.867 10.8707 101.867 16.1671 98.6 19.4339L19.5545 98.4794C16.2877 101.746 10.9913 101.746 7.72454 98.4794Z" fill="black"/>
<path fill-rule="evenodd" clip-rule="evenodd" d="M61.497 152.253C58.2303 148.986 58.2303 143.69 61.497 140.423L140.542 61.3774C143.809 58.1106 149.106 58.1106 152.372 61.3774C155.639 64.6441 155.639 69.9406 152.372 73.2073L73.3269 152.253C70.0602 155.52 64.7637 155.52 61.497 152.253Z" fill="black"/>
</svg>
