<svg width="80" height="80" viewBox="0 0 80 80" fill="none" xmlns="http://www.w3.org/2000/svg">
<path d="M13.1072 13.1545C7.94532 18.3215 5.6181 22.2132 3.5088 29.2056C1.81399 34.8239 35.0099 1.77222 29.1851 3.52928C22.179 5.64271 18.2792 7.97738 13.1072 13.1545Z" fill="white"/>
<path d="M66.8928 66.8455C72.0547 61.6785 74.3819 57.7868 76.4912 50.7944C78.186 45.1761 44.9901 78.2278 50.8149 76.4707C57.821 74.3573 61.7208 72.0226 66.8928 66.8455Z" fill="white"/>
<path fill-rule="evenodd" clip-rule="evenodd" d="M11.4941 68.4867C9.41521 66.4079 9.41521 63.0374 11.4941 60.9586L60.9109 11.5417C62.9897 9.46287 66.3602 9.46288 68.439 11.5417C70.5179 13.6206 70.5179 16.991 68.4391 19.0699L19.0222 68.4867C16.9434 70.5656 13.5729 70.5656 11.4941 68.4867Z" fill="white"/>
<path fill-rule="evenodd" clip-rule="evenodd" d="M3.86227 49.2397C2.2289 47.6063 2.2289 44.9581 3.86227 43.3247L43.385 3.802C45.0184 2.16863 47.6666 2.16863 49.3 3.802C50.9334 5.43538 50.9334 8.0836 49.3 9.71697L9.77724 49.2397C8.14386 50.8731 5.49564 50.8731 3.86227 49.2397Z" fill="white"/>
<path fill-rule="evenodd" clip-rule="evenodd" d="M30.7485 76.1264C29.1151 74.4931 29.1151 71.8448 30.7485 70.2115L70.2712 30.6887C71.9046 29.0554 74.5528 29.0553 76.1862 30.6887C77.8196 32.3221 77.8196 34.9703 76.1862 36.6037L36.6635 76.1264C35.0301 77.7598 32.3819 77.7598 30.7485 76.1264Z" fill="white"/>
</svg>
